<svg width="156" height="48" viewBox="0 0 156 48" fill="none" xmlns="http://www.w3.org/2000/svg">
<path d="M18.0128 0.77507C13.5708 1.95691 10.392 3.79079 6.92801 7.29555C2.11916 12.1044 0 17.1985 0 24.0043C0 30.7693 2.15991 35.9449 6.92801 40.7538C18.5426 52.4499 37.4113 49.5972 45.1951 35.0076C48.6998 28.4871 48.6998 19.5214 45.1951 13.001C39.8564 2.97573 28.7309 -2.03689 18.0128 0.77507ZM29.5867 6.88802C40.1417 10.515 44.9913 22.4557 39.9379 32.2771C35.8626 40.1017 26.8155 43.7695 18.2166 41.1205C13.0817 39.5312 8.51738 34.9668 6.68349 29.6282C5.58316 26.4902 5.70542 20.8663 6.88726 17.8098C8.88415 12.6749 13.204 8.47739 18.1758 6.88802C21.5176 5.82844 26.4487 5.82844 29.5867 6.88802Z" fill="#FF0000"/>
<path d="M19.5614 14.3865C13.9783 16.0981 11.1663 21.5183 12.7965 27.2237C13.6523 30.1172 15.6899 32.4808 18.2574 33.4589C20.8655 34.4777 26.7747 34.4777 29.4237 33.4589C31.2983 32.7253 34.477 29.7911 34.0695 29.1391C33.9473 28.9761 32.3579 28.6908 30.524 28.5685C27.5898 28.324 27.1008 28.4055 26.1634 29.0983C25.0224 29.9949 22.5772 30.1579 21.5583 29.3836C20.7433 28.7723 19.969 27.3052 19.969 26.4901C19.969 25.9196 20.9471 25.8381 27.549 25.8381H35.1291L34.8438 23.4744C34.2733 18.7471 32.0726 15.7313 28.3641 14.631C26.2449 13.979 21.3138 13.8567 19.5614 14.3865ZM26.408 19.5621C26.897 20.1327 27.3045 21.0292 27.3045 21.5998C27.3045 22.5779 27.2638 22.5779 23.6367 22.5779C19.6837 22.5779 19.5614 22.4963 20.3765 20.3772C21.2323 18.0543 24.6556 17.5652 26.408 19.5621Z" fill="black"/>
<path d="M104.735 20.547V33.9955H108.403H112.071V20.547V7.09851H108.403H104.735V20.547Z" fill="black"/>
<path d="M147.444 8.97311L143.858 10.7662V12.6001C143.858 14.3525 143.817 14.434 142.635 14.434H141.413V17.083C141.413 19.7319 141.413 19.7319 142.595 19.7319H143.736L143.94 25.1113C144.103 30.3684 144.388 31.6318 145.692 32.9359C146.792 33.9954 149.523 34.4845 152.701 34.1992C156.002 33.9139 156.002 33.8732 155.432 30.2869C155.187 28.8198 155.147 28.7791 153.598 28.9828C152.172 29.1866 152.009 29.1051 151.601 28.0863C151.357 27.4342 151.234 25.3558 151.275 23.4404L151.397 19.9357L153.557 19.8134L155.676 19.6911V17.083V14.4748L153.557 14.3525L151.397 14.2302L151.194 10.7255L150.99 7.17997L147.444 8.97311Z" fill="black"/>
<path d="M83.9512 14.5155C83.1769 14.7193 82.0765 15.249 81.4652 15.6973C80.4057 16.4309 78.8163 19.2021 79.1831 19.6096C79.3053 19.6911 80.8132 19.9764 82.5248 20.1802C85.5813 20.5877 85.7036 20.5469 86.6001 19.5689C88.434 17.572 92.5093 17.8165 92.5093 19.9356C92.5093 21.199 92.061 21.362 86.6001 22.5846C80.1204 23.9702 78.5718 25.1113 78.4903 28.5345C78.4088 31.6725 80.4464 33.7509 84.0327 34.2399C86.4371 34.566 90.0641 33.7917 91.735 32.5283L93.1206 31.5095L93.4466 32.7728L93.7727 33.9954H97.2367C100.415 33.9954 100.701 33.9139 100.415 33.2619C100.252 32.8951 99.9671 29.4311 99.8449 25.6411C99.7226 21.8103 99.3966 18.2648 99.152 17.6942C98.5408 16.3086 97.3182 15.2898 95.4843 14.597C93.6504 13.9857 86.1111 13.9042 83.9512 14.5155ZM92.7131 25.0298C92.8353 25.2335 92.7538 26.1708 92.5093 27.0674C91.735 29.8794 88.1895 31.3057 86.3964 29.5126C85.9481 29.0643 85.5813 28.5345 85.5813 28.3308C85.5813 27.3934 87.2522 26.1708 89.4528 25.478C92.4278 24.5407 92.3871 24.5407 92.7131 25.0298Z" fill="black"/>
<path d="M123.482 14.3933C120.67 15.2491 118.51 17.083 117.124 19.7319C116.024 21.8511 116.105 26.7414 117.246 28.9421C118.347 31.0205 120.466 32.9359 122.544 33.6287C124.867 34.4845 130.98 34.3623 133.344 33.4657C135.218 32.7321 138.397 29.7979 137.99 29.1459C137.867 28.9829 136.278 28.6976 134.444 28.5753C131.51 28.3308 131.021 28.4123 130.084 29.1051C129.106 29.9202 127.027 30.1647 125.723 29.6757C124.989 29.3904 123.889 27.475 123.889 26.4562C123.889 25.9264 124.908 25.8449 131.469 25.8449H139.008L138.764 23.4812C138.193 18.7539 135.993 15.7381 132.284 14.6378C130.165 13.9858 125.234 13.8635 123.482 14.3933ZM130.328 19.5689C130.817 20.1395 131.225 21.036 131.225 21.6066C131.225 22.5846 131.184 22.5846 127.557 22.5846C124.011 22.5846 123.889 22.5439 123.889 21.6473C123.889 18.5093 128.127 17.083 130.328 19.5689Z" fill="black"/>
<path d="M54.3645 15.1268C54.5275 15.5343 56.3206 19.9357 58.3583 24.9483L62.1076 34.0362L65.3678 33.9139L68.628 33.7917L72.6218 24.4592C74.8225 19.3244 76.6156 14.9638 76.6156 14.76C76.6156 14.597 74.9855 14.434 73.0294 14.434H69.4431L67.65 20.2209C66.6719 23.4404 65.7753 26.1709 65.6123 26.3746C65.4901 26.5376 64.5527 23.9702 63.5339 20.6692L61.7 14.6378L57.91 14.5155C54.4052 14.3933 54.12 14.4748 54.3645 15.1268Z" fill="black"/>
</svg>
